# demo bottle mesh for FoundationPose testing
v 0.000000 0.000000 0.000000
v 0.035000 0.000000 0.000000
v 0.034327 0.006828 0.000000
v 0.032336 0.013394 0.000000
v 0.029101 0.019445 0.000000
v 0.024749 0.024749 0.000000
v 0.019445 0.029101 0.000000
v 0.013394 0.032336 0.000000
v 0.006828 0.034327 0.000000
v 0.000000 0.035000 0.000000
v -0.006828 0.034327 0.000000
v -0.013394 0.032336 0.000000
v -0.019445 0.029101 0.000000
v -0.024749 0.024749 0.000000
v -0.029101 0.019445 0.000000
v -0.032336 0.013394 0.000000
v -0.034327 0.006828 0.000000
v -0.035000 0.000000 0.000000
v -0.034327 -0.006828 0.000000
v -0.032336 -0.013394 0.000000
v -0.029101 -0.019445 0.000000
v -0.024749 -0.024749 0.000000
v -0.019445 -0.029101 0.000000
v -0.013394 -0.032336 0.000000
v -0.006828 -0.034327 0.000000
v -0.000000 -0.035000 0.000000
v 0.006828 -0.034327 0.000000
v 0.013394 -0.032336 0.000000
v 0.019445 -0.029101 0.000000
v 0.024749 -0.024749 0.000000
v 0.029101 -0.019445 0.000000
v 0.032336 -0.013394 0.000000
v 0.034327 -0.006828 0.000000
v 0.035000 0.000000 0.140000
v 0.034327 0.006828 0.140000
v 0.032336 0.013394 0.140000
v 0.029101 0.019445 0.140000
v 0.024749 0.024749 0.140000
v 0.019445 0.029101 0.140000
v 0.013394 0.032336 0.140000
v 0.006828 0.034327 0.140000
v 0.000000 0.035000 0.140000
v -0.006828 0.034327 0.140000
v -0.013394 0.032336 0.140000
v -0.019445 0.029101 0.140000
v -0.024749 0.024749 0.140000
v -0.029101 0.019445 0.140000
v -0.032336 0.013394 0.140000
v -0.034327 0.006828 0.140000
v -0.035000 0.000000 0.140000
v -0.034327 -0.006828 0.140000
v -0.032336 -0.013394 0.140000
v -0.029101 -0.019445 0.140000
v -0.024749 -0.024749 0.140000
v -0.019445 -0.029101 0.140000
v -0.013394 -0.032336 0.140000
v -0.006828 -0.034327 0.140000
v -0.000000 -0.035000 0.140000
v 0.006828 -0.034327 0.140000
v 0.013394 -0.032336 0.140000
v 0.019445 -0.029101 0.140000
v 0.024749 -0.024749 0.140000
v 0.029101 -0.019445 0.140000
v 0.032336 -0.013394 0.140000
v 0.034327 -0.006828 0.140000
v 0.000000 0.000000 0.140000
f 1 1 2
f 66 34 33
f 1 33 34
f 1 34 2
f 1 2 3
f 66 35 34
f 2 34 35
f 2 35 3
f 1 3 4
f 66 36 35
f 3 35 36
f 3 36 4
f 1 4 5
f 66 37 36
f 4 36 37
f 4 37 5
f 1 5 6
f 66 38 37
f 5 37 38
f 5 38 6
f 1 6 7
f 66 39 38
f 6 38 39
f 6 39 7
f 1 7 8
f 66 40 39
f 7 39 40
f 7 40 8
f 1 8 9
f 66 41 40
f 8 40 41
f 8 41 9
f 1 9 10
f 66 42 41
f 9 41 42
f 9 42 10
f 1 10 11
f 66 43 42
f 10 42 43
f 10 43 11
f 1 11 12
f 66 44 43
f 11 43 44
f 11 44 12
f 1 12 13
f 66 45 44
f 12 44 45
f 12 45 13
f 1 13 14
f 66 46 45
f 13 45 46
f 13 46 14
f 1 14 15
f 66 47 46
f 14 46 47
f 14 47 15
f 1 15 16
f 66 48 47
f 15 47 48
f 15 48 16
f 1 16 17
f 66 49 48
f 16 48 49
f 16 49 17
f 1 17 18
f 66 50 49
f 17 49 50
f 17 50 18
f 1 18 19
f 66 51 50
f 18 50 51
f 18 51 19
f 1 19 20
f 66 52 51
f 19 51 52
f 19 52 20
f 1 20 21
f 66 53 52
f 20 52 53
f 20 53 21
f 1 21 22
f 66 54 53
f 21 53 54
f 21 54 22
f 1 22 23
f 66 55 54
f 22 54 55
f 22 55 23
f 1 23 24
f 66 56 55
f 23 55 56
f 23 56 24
f 1 24 25
f 66 57 56
f 24 56 57
f 24 57 25
f 1 25 26
f 66 58 57
f 25 57 58
f 25 58 26
f 1 26 27
f 66 59 58
f 26 58 59
f 26 59 27
f 1 27 28
f 66 60 59
f 27 59 60
f 27 60 28
f 1 28 29
f 66 61 60
f 28 60 61
f 28 61 29
f 1 29 30
f 66 62 61
f 29 61 62
f 29 62 30
f 1 30 31
f 66 63 62
f 30 62 63
f 30 63 31
f 1 31 32
f 66 64 63
f 31 63 64
f 31 64 32
f 1 32 1
f 66 33 64
f 32 64 33
f 32 33 1
